<svg version="1.1" id="Layer_1" xmlns="http://www.w3.org/2000/svg" xmlns:xlink="http://www.w3.org/1999/xlink" x="0px" y="0px"
	 width="100%" viewBox="0 0 2000 1500" enable-background="new 0 0 2000 1500" xml:space="preserve">
<path fill="#ED1703" opacity="1.000000" stroke="none" 
	d="
M1219.000000,1501.000000 
	C812.666809,1501.000000 406.833588,1501.000000 1.000272,1501.000000 
	C1.000181,1001.000244 1.000181,501.000549 1.000091,1.000608 
	C667.666199,1.000405 1334.332397,1.000405 2000.998901,1.000203 
	C2000.999268,500.999390 2000.999268,1000.998779 2000.999634,1500.999023 
	C1740.500000,1501.000000 1480.000000,1501.000000 1219.000000,1501.000000 
M1216.594360,737.407532 
	C1216.756348,738.214050 1216.854248,739.703491 1217.089844,739.725586 
	C1221.251953,740.116394 1220.237183,743.176880 1220.126343,745.605957 
	C1219.861694,751.403809 1221.786621,757.592896 1216.288696,762.851807 
	C1221.502075,762.851807 1225.748657,762.851807 1230.117920,762.851807 
	C1225.912720,754.531677 1224.438843,746.721375 1231.634033,740.281494 
	C1234.307739,741.249634 1236.464111,741.711365 1238.560913,741.520020 
	C1238.922485,741.487122 1239.491089,737.467285 1239.182983,737.350525 
	C1236.971558,736.512512 1234.500122,735.665283 1232.228027,735.909363 
	C1230.504272,736.094543 1228.952759,737.884705 1227.085083,739.118958 
	C1227.146484,735.982910 1226.404541,734.492126 1222.977661,735.912720 
	C1220.794922,736.817505 1218.199097,736.726196 1215.027832,736.557251 
	C1214.919556,734.773987 1215.397827,731.789856 1214.607178,731.403564 
	C1209.697632,729.005371 1207.828857,733.658752 1205.342529,736.253418 
	C1197.542480,733.984741 1191.777832,735.546082 1188.690308,740.600769 
	C1185.939087,745.105225 1186.695190,748.857727 1191.338013,753.740112 
	C1186.133301,758.494751 1185.980469,759.848999 1190.111694,764.606079 
	C1184.744507,769.314453 1184.618530,773.881348 1190.143677,776.278442 
	C1196.972412,779.240906 1203.974243,778.875549 1210.050659,774.467834 
	C1211.956421,773.085327 1213.717896,769.529236 1213.289551,767.427856 
	C1212.808228,765.067139 1210.132446,762.422546 1207.759155,761.365356 
	C1204.852539,760.070557 1201.253418,760.386963 1197.984741,759.826050 
	C1196.082031,759.499512 1194.239990,758.819275 1192.370728,758.298218 
	C1192.436523,757.679932 1192.502319,757.061646 1192.568115,756.443359 
	C1194.727905,756.275879 1196.884888,756.042419 1199.047974,755.952209 
	C1208.724731,755.548706 1213.278320,748.105530 1209.197998,739.550293 
	C1208.666382,738.435913 1209.125122,736.849365 1209.125122,735.438354 
	C1211.900024,736.086487 1213.885498,736.550232 1216.594360,737.407532 
M1443.531738,661.518311 
	C1440.613525,664.568481 1437.733398,667.656189 1434.764404,670.656189 
	C1432.642334,672.800415 1430.401489,674.827087 1428.213745,676.906250 
	C1427.657959,676.539917 1427.102295,676.173584 1426.546509,675.807251 
	C1426.546509,666.823303 1427.250366,657.773438 1426.415527,648.867798 
	C1423.821045,621.191101 1420.512573,593.582031 1417.781860,565.916992 
	C1417.089722,558.906067 1414.670044,552.958801 1410.942993,547.045471 
	C1383.882324,504.112610 1357.102661,461.002808 1330.083984,418.043365 
	C1326.647949,412.580170 1322.683228,407.359253 1318.381104,402.546631 
	C1298.369019,380.159882 1274.451660,362.895386 1247.519531,349.804291 
	C1225.155151,338.933472 1202.092163,329.493744 1177.254761,326.718658 
	C1161.457275,324.953644 1145.329956,326.352478 1129.377319,325.687378 
	C1120.009033,325.296783 1112.984619,327.752716 1110.052856,336.435211 
	C1105.266357,335.606689 1101.069824,334.478577 1096.825684,334.255859 
	C1092.362061,334.021606 1087.852783,334.649475 1083.363770,334.908020 
	C1075.973389,335.333588 1070.287720,338.559021 1066.924438,345.277435 
	C1063.626587,351.864990 1064.284058,358.508057 1068.670654,364.110107 
	C1072.209351,368.629425 1076.511597,372.793701 1081.171631,376.147797 
	C1096.579468,387.237671 1114.411743,390.788330 1132.968872,391.864655 
	C1135.660034,392.020752 1138.609253,392.725861 1140.893921,394.090027 
	C1157.030396,403.724823 1173.488770,412.920441 1188.970215,423.531769 
	C1225.078003,448.280792 1260.745239,473.675079 1296.454956,498.999573 
	C1301.928833,502.881500 1307.288574,503.790009 1313.294678,501.265442 
	C1316.963257,499.723389 1320.505737,497.882202 1324.113037,496.192749 
	C1325.805298,495.400116 1327.516968,494.648743 1329.552246,493.728394 
	C1329.552246,499.024200 1329.342651,503.503143 1329.591553,507.956451 
	C1330.328857,521.149780 1335.678955,533.058960 1340.126831,545.234619 
	C1343.812744,555.324219 1350.041504,563.121399 1359.155518,568.839233 
	C1372.904541,577.464966 1377.825439,590.440674 1376.378296,606.079651 
	C1375.922729,611.003845 1374.373413,615.821472 1373.441162,620.710205 
	C1373.173706,622.113342 1372.798096,623.835022 1373.343872,625.003479 
	C1381.637451,642.760559 1391.180298,659.835632 1406.485107,672.521851 
	C1411.556274,676.725403 1414.718628,680.336121 1414.307617,687.216614 
	C1414.159668,689.696533 1416.608032,693.186218 1418.877563,694.601746 
	C1420.042969,695.328552 1423.453247,692.559082 1425.782349,691.250977 
	C1426.430542,690.886902 1426.840698,690.099365 1427.955688,688.825623 
	C1426.123657,711.259155 1421.099609,732.741028 1426.171387,754.265320 
	C1428.794189,735.839050 1430.862793,717.296204 1434.236694,698.994019 
	C1436.543091,686.483154 1440.669800,674.307922 1444.393433,661.865845 
	C1444.271973,661.714600 1444.150391,661.563354 1444.028809,661.412170 
	C1444.059448,661.628052 1444.089966,661.843872 1443.531738,661.518311 
M1092.940918,1077.355347 
	C1092.694336,1077.336182 1092.447754,1077.317139 1092.201172,1077.298096 
	C1092.291138,1077.697998 1092.381226,1078.097778 1092.671021,1079.275391 
	C1093.347046,1082.943604 1094.023193,1086.611938 1094.699219,1090.280151 
	C1094.161255,1090.399658 1093.623413,1090.519165 1093.085571,1090.638672 
	C1091.847900,1089.644409 1090.610352,1088.650269 1089.351196,1087.638672 
	C1087.619629,1097.548584 1087.619019,1097.547974 1080.026978,1105.177979 
	C1079.557007,1105.650269 1079.054443,1106.102051 1078.652710,1106.628906 
	C1075.128296,1111.251099 1070.267456,1112.327148 1064.704346,1113.060791 
	C1049.220215,1115.103271 1033.839478,1117.919312 1018.393311,1120.267944 
	C1015.534302,1120.702759 1012.463074,1120.878174 1009.655396,1120.328003 
	C992.685608,1117.002441 975.876343,1112.678711 958.798462,1110.127930 
	C936.092102,1106.736572 913.139465,1105.025757 890.384216,1101.921997 
	C867.318726,1098.775879 846.747559,1088.979858 827.081665,1076.518555 
	C836.432678,1071.324951 839.033447,1067.052979 836.783875,1060.448975 
	C831.934387,1067.634888 824.056396,1067.571167 816.894287,1068.922241 
	C815.058472,1069.268433 812.347412,1068.383301 810.947205,1067.084351 
	C800.931824,1057.793823 791.140747,1048.261108 781.298340,1038.784546 
	C749.132751,1007.814880 716.772949,977.042847 684.910645,945.764099 
	C671.362671,932.464233 658.724365,918.215332 651.781372,899.966187 
	C649.359680,893.601013 646.581421,887.371582 643.970215,881.078369 
	C639.918213,871.312683 635.869690,861.545532 631.635132,851.333862 
	C628.184143,854.072266 625.708496,858.111877 621.429199,854.163269 
	C617.292297,850.346130 615.135071,842.179626 617.335571,838.224915 
	C620.139404,833.185974 624.037048,834.954224 628.356628,837.191406 
	C626.007568,820.708313 624.375549,804.786194 621.323730,789.141113 
	C618.463013,774.476562 618.819214,760.848083 627.244141,747.947510 
	C629.178406,744.985657 630.485352,741.239441 630.895874,737.716125 
	C634.422424,707.446716 638.141296,677.187988 640.904480,646.844238 
	C645.151794,600.203491 660.969482,558.239319 689.427612,521.018494 
	C709.167297,495.200714 732.683289,473.024902 756.657043,451.320770 
	C767.250977,441.729828 777.591675,431.469177 789.534241,423.840118 
	C813.485474,408.539795 838.294006,394.548126 863.047729,380.544922 
	C904.434143,357.132690 948.666565,344.309113 996.619934,346.047668 
	C1002.769104,346.270599 1008.963379,346.406860 1015.086060,345.931152 
	C1024.200928,345.222992 1029.691528,340.449982 1030.641113,331.856995 
	C1031.359741,325.354004 1030.783569,318.707886 1030.783569,311.729889 
	C1024.396484,314.261353 1019.295227,312.360138 1014.620605,308.593048 
	C1011.767578,306.293976 1009.013489,303.863129 1006.070923,301.686157 
	C1000.226196,297.362030 994.088623,294.640015 986.928955,298.888031 
	C985.948975,299.469513 984.739929,299.656647 983.650635,300.063263 
	C957.024719,310.002441 929.995728,319.085297 906.745239,336.213684 
	C906.590149,336.327972 906.150391,336.055756 905.522644,335.868042 
	C905.919739,331.802460 906.599548,327.675262 906.602905,323.547546 
	C906.604492,321.639099 905.778503,318.778595 904.431274,318.080811 
	C903.007324,317.343323 900.136719,318.118164 898.571960,319.203705 
	C895.449646,321.369751 892.796814,324.209808 889.934509,326.753937 
	C884.337219,331.729004 878.840088,336.825165 873.087219,341.613831 
	C869.193909,344.854736 864.699524,345.729095 859.509094,344.709503 
	C855.677368,343.956848 851.465393,343.869354 847.634155,344.597595 
	C827.610168,348.403687 814.582031,360.737152 807.048340,379.230560 
	C805.962646,381.895660 804.779419,383.376526 801.829651,383.251099 
	C795.193542,382.968811 788.473511,383.342682 781.933167,382.419281 
	C770.693726,380.832550 761.043579,382.707855 752.557861,390.962860 
	C729.632935,413.264191 706.471069,435.324951 683.197754,457.263184 
	C676.663696,463.422455 672.290100,470.580536 669.977966,479.132416 
	C667.314087,488.985260 662.519287,497.622925 655.186890,504.755096 
	C644.919312,514.742188 635.018005,525.164917 624.179199,534.494080 
	C595.700684,559.006165 577.629639,589.412415 570.949158,626.350403 
	C565.975037,653.853088 561.716980,681.484802 556.893738,709.015930 
	C556.238770,712.754456 556.884766,715.637878 558.619385,718.856567 
	C572.146851,743.956177 583.891235,769.803040 590.426025,797.720398 
	C592.093140,804.842346 593.508423,812.032959 594.753296,819.241394 
	C596.075012,826.895020 592.791809,829.941650 585.258850,828.442444 
	C584.659607,828.323242 584.037659,828.318359 583.169373,828.235962 
	C583.084351,840.778809 581.789368,853.277161 586.220459,865.067627 
	C590.835327,877.346924 596.229858,889.341736 601.516174,901.358582 
	C617.508911,937.713684 634.568909,973.626648 647.040405,1011.432434 
	C648.825134,1016.842407 650.146240,1021.397339 656.911377,1023.760864 
	C664.522583,1026.419922 666.698242,1034.439087 667.956909,1042.116577 
	C670.153442,1055.514648 674.130981,1068.371704 681.105347,1080.075439 
	C693.726074,1101.254272 711.473083,1113.711670 737.197510,1112.156494 
	C740.850586,1111.935669 744.533203,1111.985962 748.192993,1112.135620 
	C758.090271,1112.541016 767.126099,1115.229370 774.864868,1121.823364 
	C789.365662,1134.179199 806.384644,1139.192627 825.250671,1138.602661 
	C826.688293,1138.557617 828.339905,1138.669678 829.559509,1139.326294 
	C851.807678,1151.303833 874.074707,1163.250244 896.163391,1175.517090 
	C901.666565,1178.573364 906.461426,1183.690674 913.188232,1175.283569 
	C913.188232,1181.329224 913.188232,1185.564941 913.188232,1189.887451 
	C927.273865,1188.403564 940.825012,1186.796265 954.411377,1185.583130 
	C980.888672,1183.219238 1007.342651,1182.978271 1033.571899,1188.109253 
	C1043.550659,1190.061279 1053.298828,1194.191772 1063.657471,1190.028809 
	C1064.529175,1189.678345 1065.638916,1189.905029 1066.638550,1189.891113 
	C1080.428711,1189.699219 1091.837036,1196.296631 1103.463501,1202.510620 
	C1106.846924,1204.319092 1110.864746,1205.318237 1114.703857,1205.803955 
	C1119.836548,1206.453247 1121.299316,1204.299927 1119.981689,1199.244263 
	C1119.744995,1198.336060 1119.470459,1197.437500 1118.828857,1195.183472 
	C1127.848022,1192.733154 1136.774048,1190.863892 1145.296509,1187.853027 
	C1156.149048,1184.019043 1163.795410,1186.701294 1169.519897,1196.664062 
	C1171.519531,1200.144165 1174.971436,1202.691162 1179.584473,1202.633423 
	C1179.584473,1199.305908 1179.547974,1196.309692 1179.590942,1193.314697 
	C1179.749512,1182.273438 1183.072388,1178.957031 1194.031616,1179.107544 
	C1198.141602,1179.163940 1202.247192,1179.532104 1206.864136,1179.786133 
	C1206.676147,1176.544922 1206.028809,1173.691162 1206.467041,1171.015259 
	C1207.144043,1166.882812 1207.416626,1161.902710 1209.879761,1158.988403 
	C1217.822998,1149.590088 1226.490479,1140.770020 1235.275757,1132.130615 
	C1240.308838,1127.181274 1246.111206,1123.014160 1251.635986,1118.437988 
	C1256.810181,1124.039795 1261.254150,1128.850952 1266.555298,1134.590210 
	C1267.017456,1125.852905 1264.346558,1119.677368 1259.777466,1114.185669 
	C1257.757446,1111.757812 1255.477905,1109.546021 1253.451416,1107.123169 
	C1251.880981,1105.245728 1251.860962,1103.049561 1254.421387,1102.362305 
	C1264.741211,1099.591919 1274.865479,1092.039429 1286.250488,1101.655151 
	C1282.613770,1092.287354 1285.194458,1088.108887 1294.307007,1087.052612 
	C1296.449707,1086.804199 1298.634155,1086.822754 1300.797119,1086.858154 
	C1313.716309,1087.070068 1318.619263,1083.064941 1320.174805,1070.075806 
	C1320.701904,1065.673828 1322.402588,1062.325073 1325.255493,1059.132568 
	C1361.775024,1018.266907 1388.005371,971.309814 1407.285156,920.253967 
	C1407.955688,918.477966 1408.609619,916.695557 1409.271240,914.916138 
	C1406.603760,915.772827 1404.722656,917.108032 1402.920898,918.542725 
	C1391.852417,927.356201 1382.927856,938.015015 1375.477051,950.014771 
	C1371.235107,956.846680 1367.942505,957.639160 1360.708008,954.045776 
	C1359.043091,959.170959 1357.388306,964.265320 1355.733398,969.359741 
	C1355.452759,969.270691 1355.172119,969.181702 1354.891602,969.092651 
	C1355.051392,965.512817 1355.211182,961.933044 1355.405396,957.583496 
	C1352.745117,959.599182 1350.649902,961.144104 1348.599731,962.746521 
	C1297.417725,1002.752258 1245.405151,1041.608276 1190.679321,1076.699585 
	C1187.762085,1078.570190 1184.636353,1080.251465 1181.396973,1081.453125 
	C1175.723145,1083.557861 1171.370117,1081.940552 1167.969604,1076.970581 
	C1167.066406,1075.650391 1166.279175,1074.251099 1165.270142,1072.614746 
	C1161.892822,1075.531128 1158.968384,1078.560791 1155.538330,1080.824707 
	C1153.556885,1082.132690 1150.033203,1083.408081 1148.531128,1082.500488 
	C1146.977905,1081.562134 1146.964600,1077.978882 1146.425293,1075.520142 
	C1146.275513,1074.837036 1146.650391,1074.038818 1146.866455,1072.838501 
	C1142.186523,1072.838501 1137.338013,1071.604126 1133.724976,1073.187988 
	C1130.160400,1074.750732 1127.846191,1079.165405 1124.802856,1082.528320 
	C1123.453979,1080.639160 1121.724976,1078.217407 1119.291016,1074.808228 
	C1118.297974,1080.514404 1117.539062,1084.875366 1116.765869,1089.318237 
	C1113.280273,1082.991577 1112.448975,1083.295288 1105.774536,1092.946777 
	C1101.592041,1087.995850 1097.334961,1082.956543 1092.940918,1077.355347 
M987.765320,749.449463 
	C987.043518,753.857178 986.321777,758.264893 985.590576,762.730164 
	C988.990417,762.730164 993.200684,762.730164 998.739990,762.730164 
	C992.992615,758.807922 994.478821,753.880615 994.384094,749.322571 
	C994.359924,748.157227 994.500244,746.976257 994.358643,745.827881 
	C993.891907,742.042664 995.243652,739.412781 999.246704,739.348938 
	C1003.197205,739.285889 1004.212097,742.293640 1004.013367,745.560303 
	C1003.664124,751.302185 1003.031067,757.026855 1002.504150,762.901001 
	C1005.532471,762.901001 1009.638733,762.901001 1014.095093,762.901001 
	C1014.031189,761.993103 1014.135071,760.579773 1013.897156,760.519714 
	C1009.727234,759.466370 1011.088013,756.161987 1010.993286,753.524963 
	C1010.879700,750.364441 1011.222168,747.162231 1010.836304,744.043762 
	C1010.430481,740.764343 1012.302795,739.843628 1014.760132,739.503540 
	C1018.291443,739.014771 1020.117676,741.000977 1020.330200,744.326660 
	C1020.728394,750.559753 1021.989563,756.936401 1017.481384,762.671692 
	C1022.291504,762.671692 1026.461304,762.671692 1030.631226,762.671692 
	C1030.789185,762.300964 1030.947021,761.930237 1031.104980,761.559570 
	C1029.871460,760.671631 1028.637939,759.783691 1027.215820,758.760010 
	C1027.215820,754.124939 1027.406372,749.292114 1027.173706,744.479675 
	C1026.771118,736.151062 1021.104248,732.815735 1013.359009,736.182068 
	C1012.022278,736.762939 1010.760132,737.515625 1010.336548,737.735657 
	C1001.032471,733.167603 992.587952,736.821289 984.187378,736.972107 
	C984.018311,737.487061 983.849243,738.001953 983.680237,738.516846 
	C984.988892,739.379272 986.297485,740.241638 987.765381,741.208984 
	C987.765381,743.483643 987.765381,745.974121 987.765320,749.449463 
M934.690186,726.885925 
	C935.391724,727.682983 936.093262,728.480042 937.050354,729.567505 
	C932.699341,732.964966 933.070007,740.892761 926.206665,741.958008 
	C925.536316,741.617737 924.865906,741.277466 924.195557,740.937195 
	C925.468079,735.649414 926.740601,730.361694 927.979736,725.212646 
	C923.979126,725.212646 919.387085,725.212646 914.708374,725.212646 
	C914.708374,726.117432 914.544128,727.258606 914.732300,727.320007 
	C920.074341,729.063782 918.029480,733.481079 918.203735,736.989563 
	C918.385132,740.641174 918.280884,744.309326 918.235046,747.969360 
	C918.173828,752.857971 919.388794,758.098694 914.608887,761.769714 
	C914.521851,761.836548 914.776123,762.347717 914.940247,762.872559 
	C919.468628,762.872559 924.059021,762.872559 928.649353,762.872559 
	C928.904968,762.464600 929.160522,762.056641 929.416138,761.648621 
	C928.018921,760.613586 926.621704,759.578491 925.549438,758.784119 
	C925.549438,754.358398 925.549438,750.128967 925.549438,744.546387 
	C927.706055,746.423157 929.169067,747.351990 930.173401,748.638733 
	C932.626038,751.781128 935.069824,754.964844 937.144836,758.359558 
	C940.294922,763.513000 944.728088,763.782898 950.086487,762.625916 
	C944.250854,755.658447 938.674622,749.000732 933.089233,742.332031 
	C934.619812,739.856934 935.903992,737.519348 937.444702,735.365051 
	C938.880493,733.357361 940.403442,731.335510 942.234070,729.709595 
	C943.811707,728.308228 945.876831,727.455688 947.726440,726.360474 
	C947.424561,725.720764 947.122681,725.081055 946.820801,724.441345 
	C942.779358,725.007446 938.737976,725.573608 934.690186,726.885925 
M818.426880,762.812927 
	C821.017273,763.619324 822.896729,763.804443 824.224304,760.416992 
	C827.344788,752.454651 828.264771,743.430420 834.909668,737.065369 
	C834.992249,736.986267 834.694580,736.510193 834.527466,736.105835 
	C831.446655,736.105835 828.330444,736.105835 824.606445,736.105835 
	C829.561462,743.014160 823.676514,748.167053 822.459290,754.161072 
	C820.439575,749.390442 818.613892,744.624695 817.422302,739.705383 
	C816.525452,736.003113 814.735962,735.127991 811.312561,736.367371 
	C809.490967,742.181274 807.666687,748.003601 805.842407,753.825928 
	C804.272461,748.004944 799.149353,742.669983 804.476807,736.141052 
	C799.724182,736.141052 795.632446,736.141052 790.871155,736.141052 
	C792.406250,738.803040 793.981689,740.900085 794.898315,743.253662 
	C796.944153,748.507080 798.526367,753.941772 800.594788,759.185242 
	C801.211243,760.747925 802.815308,761.921143 803.966919,763.272888 
	C805.231262,761.840820 806.977966,760.607300 807.665161,758.937683 
	C809.392822,754.740479 810.641907,750.346375 812.388123,745.117065 
	C814.511719,751.483276 816.293701,756.825439 818.426880,762.812927 
M758.974670,727.936096 
	C758.269226,726.768372 757.563843,725.600647 756.858459,724.432922 
	C754.276184,726.684265 751.767456,724.831360 749.216614,724.324158 
	C742.291443,722.947021 736.049194,725.854858 734.309631,731.217285 
	C732.536499,736.682922 735.251465,741.817932 741.823486,745.239624 
	C745.059570,746.924438 748.625000,748.117432 751.535950,750.229492 
	C753.098145,751.363037 754.618103,754.179382 754.279114,755.856873 
	C753.932007,757.574463 751.518677,759.521729 749.609253,760.148743 
	C744.851501,761.711060 740.456726,758.960693 738.081726,753.910950 
	C737.580688,752.845642 736.296631,752.148560 735.373413,751.281738 
	C735.053955,754.300659 734.581238,757.315369 734.496643,760.340820 
	C734.466248,761.426392 735.314209,762.570984 735.904968,763.606689 
	C736.007996,763.787231 736.827576,763.553406 737.316833,763.520020 
	C739.009460,763.404358 740.701111,763.228394 742.395569,763.192810 
	C746.148193,763.113953 749.999451,763.619446 753.629761,762.932007 
	C757.619568,762.176514 760.266907,759.261230 761.006104,755.065186 
	C761.741577,750.890747 760.276367,747.465210 756.877136,745.051880 
	C754.728455,743.526306 752.315125,742.365173 749.985962,741.104370 
	C747.655457,739.842712 744.913147,739.056519 743.045227,737.316833 
	C741.578491,735.950806 740.008057,732.977356 740.580017,731.570007 
	C741.318237,729.753601 744.035828,727.890320 746.096008,727.637634 
	C750.538940,727.092896 753.523743,729.650757 755.096558,733.925964 
	C755.573792,735.223267 756.744141,736.265686 757.596985,737.424866 
	C758.056274,737.186340 758.515564,736.947815 758.974854,736.709290 
	C758.974854,734.075073 758.974854,731.440918 758.974670,727.936096 
M1155.135254,758.687744 
	C1154.165771,759.809692 1153.196411,760.931580 1151.654297,762.716309 
	C1157.093140,762.716309 1161.435913,762.716309 1167.558472,762.716309 
	C1160.768188,758.655457 1162.755249,753.348816 1162.584106,748.551086 
	C1162.530762,747.055054 1162.227417,745.427185 1162.696167,744.090271 
	C1163.226196,742.578979 1164.195435,740.746704 1165.500244,740.070801 
	C1169.494873,738.001343 1172.754395,739.982422 1172.904907,744.792908 
	C1173.095337,750.872681 1174.907227,757.299988 1169.264404,762.769775 
	C1174.608521,762.769775 1178.835205,762.769775 1183.186890,762.769775 
	C1183.080811,761.780945 1183.121948,760.595581 1182.924316,760.554382 
	C1178.938965,759.722168 1180.098877,756.619446 1179.954224,754.080322 
	C1179.708862,749.777100 1179.742310,745.427429 1179.082642,741.186829 
	C1178.383667,736.692749 1175.033081,734.771729 1170.725830,735.051025 
	C1165.765625,735.372681 1160.817993,736.026855 1155.900024,736.768616 
	C1154.571655,736.968994 1153.370239,738.009644 1152.110474,738.664551 
	C1153.294556,739.468567 1154.478760,740.272583 1155.454468,740.935059 
	C1155.454468,746.591003 1155.454468,752.234863 1155.135254,758.687744 
M881.095032,735.351379 
	C879.403503,736.008545 876.652100,737.661926 876.186707,737.166748 
	C872.130981,732.851685 868.815918,738.432678 865.152344,737.086975 
	C864.983704,737.554016 864.815063,738.021118 864.646423,738.488220 
	C865.956970,739.360901 867.267517,740.233643 868.891602,741.315125 
	C867.713013,748.193176 871.258240,756.002014 865.184998,762.648804 
	C870.081604,762.648804 874.405640,762.648804 880.510620,762.648804 
	C873.724731,758.966553 875.542664,753.956970 875.415833,749.459473 
	C875.378296,748.129028 875.575439,746.777161 875.408447,745.467957 
	C874.877991,741.309753 877.241150,739.529236 880.821106,739.353394 
	C884.736206,739.161133 886.011169,742.073547 885.920166,745.328430 
	C885.757812,751.135376 887.995911,757.400024 882.129333,762.581177 
	C883.816101,762.847290 884.579468,763.063721 885.345093,763.072021 
	C888.813416,763.109619 892.282349,763.088501 895.879639,763.088501 
	C895.947571,762.062988 896.180420,760.934875 896.003784,760.866638 
	C891.341797,759.065552 893.150024,755.078491 892.926147,751.833374 
	C892.754517,749.346191 892.990723,746.822754 892.714600,744.352478 
	C891.908813,737.144592 889.252197,734.951538 881.095032,735.351379 
M950.012512,739.502502 
	C952.614197,740.218628 953.860535,741.508240 953.568909,744.608826 
	C953.213745,748.385010 953.475220,752.264709 953.876160,756.056641 
	C954.599426,762.897339 960.192383,765.910400 966.554626,763.063477 
	C967.886047,762.467712 969.130005,761.676208 970.414246,760.974915 
	C970.400269,761.486328 970.386230,761.997742 970.372253,762.509155 
	C973.802673,762.740967 977.233154,762.972839 980.663574,763.204651 
	C980.853516,762.698059 981.043396,762.191467 981.233337,761.684875 
	C979.952454,760.742371 978.671509,759.799866 976.830994,758.445618 
	C976.830994,751.093628 976.830994,743.219666 976.830994,735.162842 
	C973.306763,735.977905 970.303894,736.672363 965.742676,737.727234 
	C967.885620,739.344360 969.206177,740.340881 970.657959,741.436401 
	C970.657959,745.671143 971.181091,750.247498 970.418030,754.598267 
	C970.080627,756.521606 967.365356,758.654785 965.276550,759.370544 
	C964.283752,759.710815 961.338806,757.213074 960.852356,755.542603 
	C959.995605,752.600159 960.278381,749.307495 960.209717,746.158813 
	C960.131775,742.584412 960.191772,739.007141 960.191772,734.352417 
	C956.101929,736.060303 953.018555,737.347900 950.012512,739.502502 
M777.419861,734.986267 
	C774.008240,736.387878 770.470520,737.565430 767.280640,739.360840 
	C766.555115,739.769287 766.637085,742.456848 767.118591,743.823608 
	C767.375244,744.552185 769.637085,745.348999 770.356689,744.954102 
	C771.377808,744.393555 771.788147,742.748108 772.503113,741.593323 
	C773.105652,740.620239 773.638672,739.036926 774.436157,738.875061 
	C775.895203,738.578979 778.420715,738.606262 778.910217,739.436707 
	C780.128357,741.503235 780.451904,744.097168 780.940735,745.802795 
	C776.011841,747.766663 771.689087,748.802063 768.247986,751.136963 
	C766.403381,752.388489 765.056763,756.014648 765.370178,758.312134 
	C765.645203,760.328125 768.263611,762.886963 770.370361,763.554626 
	C772.598511,764.260864 775.452393,763.057190 778.017822,762.601929 
	C779.000488,762.427612 779.993652,761.649231 780.891296,761.778137 
	C784.071350,762.234924 787.212219,762.964722 790.367920,763.591064 
	C790.626953,762.992371 790.885986,762.393616 791.145020,761.794922 
	C789.900085,760.824280 788.655090,759.853638 787.194946,758.715210 
	C787.194946,756.796082 787.196106,754.472473 787.194702,752.148865 
	C787.193237,749.654785 787.263550,747.157898 787.172180,744.667114 
	C786.932129,738.125732 785.002686,736.067017 777.419861,734.986267 
M1058.887451,760.120544 
	C1057.898438,759.007874 1056.151367,757.955872 1056.056519,756.771545 
	C1055.711914,752.470398 1056.051758,748.119812 1055.884888,743.797485 
	C1055.712646,739.338013 1053.558228,736.230225 1049.001587,735.194641 
	C1044.240479,734.112549 1037.585815,736.024658 1035.904663,739.287109 
	C1035.252563,740.552612 1035.336304,742.442749 1035.714844,743.882629 
	C1035.885254,744.530518 1038.089111,745.406128 1038.519287,745.074524 
	C1039.625732,744.221680 1040.147583,742.656860 1041.107666,741.554749 
	C1042.141113,740.368469 1043.407593,738.530151 1044.571411,738.531006 
	C1045.996216,738.532104 1048.044067,739.840759 1048.684082,741.143433 
	C1049.465698,742.733887 1049.064819,744.905334 1049.158081,746.525024 
	C1045.686279,747.463318 1042.570435,747.783508 1040.014404,749.150330 
	C1037.683716,750.396484 1035.064453,752.456055 1034.239014,754.755432 
	C1033.520142,756.758545 1034.348267,760.751099 1035.891235,761.792358 
	C1038.145752,763.313904 1041.657593,763.364014 1044.621582,763.315918 
	C1046.878052,763.279297 1048.604492,760.850037 1051.650146,762.756287 
	C1052.868286,763.518616 1057.781372,765.737976 1058.887451,760.120544 
M1128.494751,736.824463 
	C1128.077637,737.095764 1127.439087,737.274719 1127.280762,737.653992 
	C1126.505859,739.511963 1125.631226,741.388672 1125.333740,743.341370 
	C1125.263428,743.802979 1127.284302,744.583313 1128.343140,745.217041 
	C1129.223511,743.727051 1129.943481,742.103577 1131.036011,740.790039 
	C1131.881226,739.773865 1133.203613,738.491272 1134.294678,738.508972 
	C1135.695068,738.531616 1137.773804,739.402527 1138.306641,740.510742 
	C1139.163818,742.293457 1138.994873,744.569641 1139.235474,746.450256 
	C1135.642822,747.442383 1132.511963,747.993652 1129.636475,749.169373 
	C1124.402222,751.309570 1122.346558,755.583130 1124.081909,759.857056 
	C1125.676392,763.783936 1130.668579,765.125854 1135.748779,763.018066 
	C1136.904053,762.538696 1138.150269,761.672546 1139.259033,761.802246 
	C1142.468018,762.177734 1145.628174,762.969604 1149.169189,763.669556 
	C1149.076904,761.891785 1149.194458,760.740173 1148.987671,760.678711 
	C1144.528320,759.353027 1146.009644,755.750366 1145.922729,752.799866 
	C1145.839478,749.971252 1146.034546,747.130066 1145.861206,744.309509 
	C1145.458374,737.757935 1142.078003,734.705078 1135.458374,735.053650 
	C1133.345947,735.164856 1131.268921,735.947571 1128.494751,736.824463 
M858.840942,753.443542 
	C858.719360,749.632874 858.834595,745.795837 858.412842,742.018677 
	C857.945251,737.830872 855.100891,735.525330 851.059509,735.119019 
	C846.297363,734.640137 841.582703,735.158325 838.609070,739.522949 
	C837.892212,740.575134 838.265137,742.680603 838.746033,744.094543 
	C838.956360,744.712646 841.066101,745.391663 841.664612,745.014282 
	C842.708435,744.356140 843.176331,742.841797 844.021851,741.796509 
	C845.000305,740.586731 846.234131,738.479553 847.163269,738.578674 
	C848.778137,738.751038 850.783203,739.995789 851.618225,741.392639 
	C852.426575,742.744812 851.966736,744.855042 852.058472,746.532471 
	C848.810486,747.393494 845.863403,747.908569 843.120422,748.957397 
	C837.472168,751.117188 835.230347,755.263367 836.972961,759.704041 
	C838.607178,763.868530 843.612549,765.177612 848.972046,762.911316 
	C850.060181,762.451111 851.295959,761.882812 852.397461,761.997986 
	C855.510437,762.323486 858.589050,762.978088 862.018250,763.560242 
	C860.752502,759.923523 859.793213,757.167358 858.840942,753.443542 
M1251.182007,763.865540 
	C1256.135986,760.053772 1261.764282,764.754028 1267.043701,762.592224 
	C1266.955933,761.819580 1266.982422,760.388367 1266.760986,760.348877 
	C1262.511597,759.592773 1263.921021,756.360413 1263.852173,753.841187 
	C1263.756714,750.351257 1263.951050,746.845520 1263.700195,743.369751 
	C1263.395386,739.149414 1261.250732,736.201355 1256.927856,735.199463 
	C1252.265137,734.118774 1245.442627,736.008240 1243.787842,739.190979 
	C1243.119263,740.476929 1243.074097,742.426147 1243.528931,743.817322 
	C1243.764771,744.538940 1246.036499,745.346985 1246.802246,744.958984 
	C1247.829956,744.438171 1248.176147,742.704895 1249.024048,741.662292 
	C1250.006836,740.453979 1251.204590,738.560364 1252.330933,738.544678 
	C1253.765869,738.524658 1255.855103,739.766724 1256.509399,741.051758 
	C1257.314575,742.632812 1256.931030,744.819031 1257.043701,746.483459 
	C1253.507324,747.461731 1250.371582,748.009766 1247.502563,749.200562 
	C1243.554932,750.838928 1240.703613,753.616089 1241.676392,758.425415 
	C1242.628906,763.133667 1246.109131,764.219666 1251.182007,763.865540 
M1106.524048,725.425110 
	C1107.647339,726.834534 1108.770630,728.243896 1109.893921,729.653320 
	C1110.841431,737.855286 1110.960449,746.669495 1110.742310,755.475464 
	C1110.698120,757.258606 1109.380493,759.010254 1108.650024,760.776428 
	C1108.156128,760.599060 1107.662354,760.421692 1107.168457,760.244324 
	C1107.023560,759.646057 1107.051025,758.907776 1106.700806,758.475952 
	C1105.687622,757.226929 1104.683594,755.794495 1103.333862,755.085205 
	C1102.827515,754.819153 1100.520386,756.356323 1100.527954,757.055237 
	C1100.547363,758.834595 1100.859741,761.208740 1102.029663,762.273499 
	C1106.939575,766.741211 1115.708862,763.161011 1116.900879,756.021545 
	C1117.743408,750.975281 1117.529053,745.753235 1117.798950,740.610352 
	C1118.060303,735.627380 1116.170898,730.046692 1121.691772,726.493958 
	C1121.807129,726.419678 1121.618286,725.872253 1121.499146,725.042542 
	C1116.812378,725.042542 1112.048706,725.042542 1106.524048,725.425110 
M1072.995361,744.308411 
	C1074.437744,742.650146 1075.880005,740.991821 1077.322388,739.333557 
	C1077.529541,739.927002 1077.736694,740.520447 1077.943848,741.113831 
	C1080.020874,741.299011 1082.142456,741.767212 1084.140747,741.452759 
	C1084.590332,741.381958 1085.136353,737.409424 1084.739380,737.230896 
	C1082.703491,736.315247 1080.310425,735.492676 1078.167114,735.736389 
	C1076.415405,735.935486 1074.839478,737.679199 1073.157471,738.756165 
	C1072.546143,737.549805 1071.928833,736.331482 1071.441772,735.370239 
	C1068.595825,735.943420 1066.161133,736.357239 1063.776245,736.966736 
	C1063.162842,737.123474 1062.333618,737.860535 1062.282227,738.396179 
	C1062.228882,738.951721 1062.875610,739.785278 1063.440552,740.136292 
	C1064.163574,740.585632 1065.110840,740.674194 1066.111938,740.961365 
	C1064.911255,748.431091 1068.390869,756.148315 1062.085449,762.796265 
	C1067.362061,762.796265 1071.586914,762.796265 1075.937378,762.796265 
	C1075.868286,761.834595 1075.944092,760.660645 1075.757202,760.617188 
	C1071.536255,759.636963 1072.791260,756.315247 1072.733032,753.621094 
	C1072.671997,750.801880 1072.764893,747.979248 1072.995361,744.308411 
z"/>
<path fill="#FFFEFE" opacity="1.000000" stroke="none" 
	d="
M1093.077881,1077.917236 
	C1097.334961,1082.956543 1101.592041,1087.995850 1105.774536,1092.946777 
	C1112.448975,1083.295288 1113.280273,1082.991577 1116.765869,1089.318237 
	C1117.539062,1084.875366 1118.297974,1080.514404 1119.291016,1074.808228 
	C1121.724976,1078.217407 1123.453979,1080.639160 1124.802856,1082.528320 
	C1127.846191,1079.165405 1130.160400,1074.750732 1133.724976,1073.187988 
	C1137.338013,1071.604126 1142.186523,1072.838501 1146.866455,1072.838501 
	C1146.650391,1074.038818 1146.275513,1074.837036 1146.425293,1075.520142 
	C1146.964600,1077.978882 1146.977905,1081.562134 1148.531128,1082.500488 
	C1150.033203,1083.408081 1153.556885,1082.132690 1155.538330,1080.824707 
	C1158.968384,1078.560791 1161.892822,1075.531128 1165.270142,1072.614746 
	C1166.279175,1074.251099 1167.066406,1075.650391 1167.969604,1076.970581 
	C1171.370117,1081.940552 1175.723145,1083.557861 1181.396973,1081.453125 
	C1184.636353,1080.251465 1187.762085,1078.570190 1190.679321,1076.699585 
	C1245.405151,1041.608276 1297.417725,1002.752258 1348.599731,962.746521 
	C1350.649902,961.144104 1352.745117,959.599182 1355.405396,957.583496 
	C1355.211182,961.933044 1355.051392,965.512817 1354.891602,969.092651 
	C1355.172119,969.181702 1355.452759,969.270691 1355.733398,969.359741 
	C1357.388306,964.265320 1359.043091,959.170959 1360.708008,954.045776 
	C1367.942505,957.639160 1371.235107,956.846680 1375.477051,950.014771 
	C1382.927856,938.015015 1391.852417,927.356201 1402.920898,918.542725 
	C1404.722656,917.108032 1406.603760,915.772827 1409.271240,914.916138 
	C1408.609619,916.695557 1407.955688,918.477966 1407.285156,920.253967 
	C1388.005371,971.309814 1361.775024,1018.266907 1325.255493,1059.132568 
	C1322.402588,1062.325073 1320.701904,1065.673828 1320.174805,1070.075806 
	C1318.619263,1083.064941 1313.716309,1087.070068 1300.797119,1086.858154 
	C1298.634155,1086.822754 1296.449707,1086.804199 1294.307007,1087.052612 
	C1285.194458,1088.108887 1282.613770,1092.287354 1286.250488,1101.655151 
	C1274.865479,1092.039429 1264.741211,1099.591919 1254.421387,1102.362305 
	C1251.860962,1103.049561 1251.880981,1105.245728 1253.451416,1107.123169 
	C1255.477905,1109.546021 1257.757446,1111.757812 1259.777466,1114.185669 
	C1264.346558,1119.677368 1267.017456,1125.852905 1266.555298,1134.590210 
	C1261.254150,1128.850952 1256.810181,1124.039795 1251.635986,1118.437988 
	C1246.111206,1123.014160 1240.308838,1127.181274 1235.275757,1132.130615 
	C1226.490479,1140.770020 1217.822998,1149.590088 1209.879761,1158.988403 
	C1207.416626,1161.902710 1207.144043,1166.882812 1206.467041,1171.015259 
	C1206.028809,1173.691162 1206.676147,1176.544922 1206.864136,1179.786133 
	C1202.247192,1179.532104 1198.141602,1179.163940 1194.031616,1179.107544 
	C1183.072388,1178.957031 1179.749512,1182.273438 1179.590942,1193.314697 
	C1179.547974,1196.309692 1179.584473,1199.305908 1179.584473,1202.633423 
	C1174.971436,1202.691162 1171.519531,1200.144165 1169.519897,1196.664062 
	C1163.795410,1186.701294 1156.149048,1184.019043 1145.296509,1187.853027 
	C1136.774048,1190.863892 1127.848022,1192.733154 1118.828857,1195.183472 
	C1119.470459,1197.437500 1119.744995,1198.336060 1119.981689,1199.244263 
	C1121.299316,1204.299927 1119.836548,1206.453247 1114.703857,1205.803955 
	C1110.864746,1205.318237 1106.846924,1204.319092 1103.463501,1202.510620 
	C1091.837036,1196.296631 1080.428711,1189.699219 1066.638550,1189.891113 
	C1065.638916,1189.905029 1064.529175,1189.678345 1063.657471,1190.028809 
	C1053.298828,1194.191772 1043.550659,1190.061279 1033.571899,1188.109253 
	C1007.342651,1182.978271 980.888672,1183.219238 954.411377,1185.583130 
	C940.825012,1186.796265 927.273865,1188.403564 913.188232,1189.887451 
	C913.188232,1185.564941 913.188232,1181.329224 913.188232,1175.283569 
	C906.461426,1183.690674 901.666565,1178.573364 896.163391,1175.517090 
	C874.074707,1163.250244 851.807678,1151.303833 829.559509,1139.326294 
	C828.339905,1138.669678 826.688293,1138.557617 825.250671,1138.602661 
	C806.384644,1139.192627 789.365662,1134.179199 774.864868,1121.823364 
	C767.126099,1115.229370 758.090271,1112.541016 748.192993,1112.135620 
	C744.533203,1111.985962 740.850586,1111.935669 737.197510,1112.156494 
	C711.473083,1113.711670 693.726074,1101.254272 681.105347,1080.075439 
	C674.130981,1068.371704 670.153442,1055.514648 667.956909,1042.116577 
	C666.698242,1034.439087 664.522583,1026.419922 656.911377,1023.760864 
	C650.146240,1021.397339 648.825134,1016.842407 647.040405,1011.432434 
	C634.568909,973.626648 617.508911,937.713684 601.516174,901.358582 
	C596.229858,889.341736 590.835327,877.346924 586.220459,865.067627 
	C581.789368,853.277161 583.084351,840.778809 583.169373,828.235962 
	C584.037659,828.318359 584.659607,828.323242 585.258850,828.442444 
	C592.791809,829.941650 596.075012,826.895020 594.753296,819.241394 
	C593.508423,812.032959 592.093140,804.842346 590.426025,797.720398 
	C583.891235,769.803040 572.146851,743.956177 558.619385,718.856567 
	C556.884766,715.637878 556.238770,712.754456 556.893738,709.015930 
	C561.716980,681.484802 565.975037,653.853088 570.949158,626.350403 
	C577.629639,589.412415 595.700684,559.006165 624.179199,534.494080 
	C635.018005,525.164917 644.919312,514.742188 655.186890,504.755096 
	C662.519287,497.622925 667.314087,488.985260 669.977966,479.132416 
	C672.290100,470.580536 676.663696,463.422455 683.197754,457.263184 
	C706.471069,435.324951 729.632935,413.264191 752.557861,390.962860 
	C761.043579,382.707855 770.693726,380.832550 781.933167,382.419281 
	C788.473511,383.342682 795.193542,382.968811 801.829651,383.251099 
	C804.779419,383.376526 805.962646,381.895660 807.048340,379.230560 
	C814.582031,360.737152 827.610168,348.403687 847.634155,344.597595 
	C851.465393,343.869354 855.677368,343.956848 859.509094,344.709503 
	C864.699524,345.729095 869.193909,344.854736 873.087219,341.613831 
	C878.840088,336.825165 884.337219,331.729004 889.934509,326.753937 
	C892.796814,324.209808 895.449646,321.369751 898.571960,319.203705 
	C900.136719,318.118164 903.007324,317.343323 904.431274,318.080811 
	C905.778503,318.778595 906.604492,321.639099 906.602905,323.547546 
	C906.599548,327.675262 905.919739,331.802460 905.522644,335.868042 
	C906.150391,336.055756 906.590149,336.327972 906.745239,336.213684 
	C929.995728,319.085297 957.024719,310.002441 983.650635,300.063263 
	C984.739929,299.656647 985.948975,299.469513 986.928955,298.888031 
	C994.088623,294.640015 1000.226196,297.362030 1006.070923,301.686157 
	C1009.013489,303.863129 1011.767578,306.293976 1014.620605,308.593048 
	C1019.295227,312.360138 1024.396484,314.261353 1030.783569,311.729889 
	C1030.783569,318.707886 1031.359741,325.354004 1030.641113,331.856995 
	C1029.691528,340.449982 1024.200928,345.222992 1015.086060,345.931152 
	C1008.963379,346.406860 1002.769104,346.270599 996.619934,346.047668 
	C948.666565,344.309113 904.434143,357.132690 863.047729,380.544922 
	C838.294006,394.548126 813.485474,408.539795 789.534241,423.840118 
	C777.591675,431.469177 767.250977,441.729828 756.657043,451.320770 
	C732.683289,473.024902 709.167297,495.200714 689.427612,521.018494 
	C660.969482,558.239319 645.151794,600.203491 640.904480,646.844238 
	C638.141296,677.187988 634.422424,707.446716 630.895874,737.716125 
	C630.485352,741.239441 629.178406,744.985657 627.244141,747.947510 
	C618.819214,760.848083 618.463013,774.476562 621.323730,789.141113 
	C624.375549,804.786194 626.007568,820.708313 628.356628,837.191406 
	C624.037048,834.954224 620.139404,833.185974 617.335571,838.224915 
	C615.135071,842.179626 617.292297,850.346130 621.429199,854.163269 
	C625.708496,858.111877 628.184143,854.072266 631.635132,851.333862 
	C635.869690,861.545532 639.918213,871.312683 643.970215,881.078369 
	C646.581421,887.371582 649.359680,893.601013 651.781372,899.966187 
	C658.724365,918.215332 671.362671,932.464233 684.910645,945.764099 
	C716.772949,977.042847 749.132751,1007.814880 781.298340,1038.784546 
	C791.140747,1048.261108 800.931824,1057.793823 810.947205,1067.084351 
	C812.347412,1068.383301 815.058472,1069.268433 816.894287,1068.922241 
	C824.056396,1067.571167 831.934387,1067.634888 836.783875,1060.448975 
	C839.033447,1067.052979 836.432678,1071.324951 827.081665,1076.518555 
	C846.747559,1088.979858 867.318726,1098.775879 890.384216,1101.921997 
	C913.139465,1105.025757 936.092102,1106.736572 958.798462,1110.127930 
	C975.876343,1112.678711 992.685608,1117.002441 1009.655396,1120.328003 
	C1012.463074,1120.878174 1015.534302,1120.702759 1018.393311,1120.267944 
	C1033.839478,1117.919312 1049.220215,1115.103271 1064.704346,1113.060791 
	C1070.267456,1112.327148 1075.128296,1111.251099 1078.652710,1106.628906 
	C1079.054443,1106.102051 1079.557007,1105.650269 1080.026978,1105.177979 
	C1087.619019,1097.547974 1087.619629,1097.548584 1089.351196,1087.638672 
	C1090.610352,1088.650269 1091.847900,1089.644409 1093.085571,1090.638672 
	C1093.623413,1090.519165 1094.161255,1090.399658 1094.699219,1090.280151 
	C1094.023193,1086.611938 1093.347046,1082.943604 1092.726318,1078.745117 
	C1092.781616,1078.214844 1093.077881,1077.917236 1093.077881,1077.917236 
M643.138672,907.168396 
	C644.260010,907.649170 645.381348,908.129944 646.570251,908.639648 
	C643.683655,902.458374 640.964294,896.612732 638.224915,890.776428 
	C636.183289,886.426758 634.344360,881.957397 631.951294,877.808960 
	C630.944397,876.063477 628.742310,875.007507 626.622192,873.257263 
	C629.233521,880.608032 632.374146,886.659058 633.374512,893.045288 
	C634.384277,899.491699 637.060303,903.849365 643.138672,907.168396 
M615.997620,884.398438 
	C618.467529,887.436218 620.937378,890.473938 623.407227,893.511719 
	C622.511902,888.156189 621.144470,883.085266 619.322205,878.183472 
	C618.887451,877.014160 616.934143,876.409363 615.679260,875.544861 
	C614.868469,877.440796 613.798096,879.283203 613.390442,881.262146 
	C613.251343,881.937256 614.777893,882.955383 615.997620,884.398438 
z"/>
<path fill="#FFFEFE" opacity="1.000000" stroke="none" 
	d="
M1443.982666,661.982666 
	C1440.669800,674.307922 1436.543091,686.483154 1434.236694,698.994019 
	C1430.862793,717.296204 1428.794189,735.839050 1426.171387,754.265320 
	C1421.099609,732.741028 1426.123657,711.259155 1427.955688,688.825623 
	C1426.840698,690.099365 1426.430542,690.886902 1425.782349,691.250977 
	C1423.453247,692.559082 1420.042969,695.328552 1418.877563,694.601746 
	C1416.608032,693.186218 1414.159668,689.696533 1414.307617,687.216614 
	C1414.718628,680.336121 1411.556274,676.725403 1406.485107,672.521851 
	C1391.180298,659.835632 1381.637451,642.760559 1373.343872,625.003479 
	C1372.798096,623.835022 1373.173706,622.113342 1373.441162,620.710205 
	C1374.373413,615.821472 1375.922729,611.003845 1376.378296,606.079651 
	C1377.825439,590.440674 1372.904541,577.464966 1359.155518,568.839233 
	C1350.041504,563.121399 1343.812744,555.324219 1340.126831,545.234619 
	C1335.678955,533.058960 1330.328857,521.149780 1329.591553,507.956451 
	C1329.342651,503.503143 1329.552246,499.024200 1329.552246,493.728394 
	C1327.516968,494.648743 1325.805298,495.400116 1324.113037,496.192749 
	C1320.505737,497.882202 1316.963257,499.723389 1313.294678,501.265442 
	C1307.288574,503.790009 1301.928833,502.881500 1296.454956,498.999573 
	C1260.745239,473.675079 1225.078003,448.280792 1188.970215,423.531769 
	C1173.488770,412.920441 1157.030396,403.724823 1140.893921,394.090027 
	C1138.609253,392.725861 1135.660034,392.020752 1132.968872,391.864655 
	C1114.411743,390.788330 1096.579468,387.237671 1081.171631,376.147797 
	C1076.511597,372.793701 1072.209351,368.629425 1068.670654,364.110107 
	C1064.284058,358.508057 1063.626587,351.864990 1066.924438,345.277435 
	C1070.287720,338.559021 1075.973389,335.333588 1083.363770,334.908020 
	C1087.852783,334.649475 1092.362061,334.021606 1096.825684,334.255859 
	C1101.069824,334.478577 1105.266357,335.606689 1110.052856,336.435211 
	C1112.984619,327.752716 1120.009033,325.296783 1129.377319,325.687378 
	C1145.329956,326.352478 1161.457275,324.953644 1177.254761,326.718658 
	C1202.092163,329.493744 1225.155151,338.933472 1247.519531,349.804291 
	C1274.451660,362.895386 1298.369019,380.159882 1318.381104,402.546631 
	C1322.683228,407.359253 1326.647949,412.580170 1330.083984,418.043365 
	C1357.102661,461.002808 1383.882324,504.112610 1410.942993,547.045471 
	C1414.670044,552.958801 1417.089722,558.906067 1417.781860,565.916992 
	C1420.512573,593.582031 1423.821045,621.191101 1426.415527,648.867798 
	C1427.250366,657.773438 1426.546509,666.823303 1426.546509,675.807251 
	C1427.102295,676.173584 1427.657959,676.539917 1428.213745,676.906250 
	C1430.401489,674.827087 1432.642334,672.800415 1434.764404,670.656189 
	C1437.733398,667.656189 1440.613525,664.568481 1443.790283,661.772217 
	C1444.048706,662.026184 1443.982666,661.982666 1443.982666,661.982666 
z"/>
<path fill="#FEF8F7" opacity="1.000000" stroke="none" 
	d="
M987.765381,748.957031 
	C987.765381,745.974121 987.765381,743.483643 987.765381,741.208984 
	C986.297485,740.241638 984.988892,739.379272 983.680237,738.516846 
	C983.849243,738.001953 984.018311,737.487061 984.187378,736.972107 
	C992.587952,736.821289 1001.032471,733.167603 1010.336548,737.735657 
	C1010.760132,737.515625 1012.022278,736.762939 1013.359009,736.182068 
	C1021.104248,732.815735 1026.771118,736.151062 1027.173706,744.479675 
	C1027.406372,749.292114 1027.215820,754.124939 1027.215820,758.760010 
	C1028.637939,759.783691 1029.871460,760.671631 1031.104980,761.559570 
	C1030.947021,761.930237 1030.789185,762.300964 1030.631226,762.671692 
	C1026.461304,762.671692 1022.291504,762.671692 1017.481384,762.671692 
	C1021.989563,756.936401 1020.728394,750.559753 1020.330200,744.326660 
	C1020.117676,741.000977 1018.291443,739.014771 1014.760132,739.503540 
	C1012.302795,739.843628 1010.430481,740.764343 1010.836304,744.043762 
	C1011.222168,747.162231 1010.879700,750.364441 1010.993286,753.524963 
	C1011.088013,756.161987 1009.727234,759.466370 1013.897156,760.519714 
	C1014.135071,760.579773 1014.031189,761.993103 1014.095093,762.901001 
	C1009.638733,762.901001 1005.532471,762.901001 1002.504150,762.901001 
	C1003.031067,757.026855 1003.664124,751.302185 1004.013367,745.560303 
	C1004.212097,742.293640 1003.197205,739.285889 999.246704,739.348938 
	C995.243652,739.412781 993.891907,742.042664 994.358643,745.827881 
	C994.500244,746.976257 994.359924,748.157227 994.384094,749.322571 
	C994.478821,753.880615 992.992615,758.807922 998.739990,762.730164 
	C993.200684,762.730164 988.990417,762.730164 985.590576,762.730164 
	C986.321777,758.264893 987.043518,753.857178 987.765381,748.957031 
z"/>
<path fill="#FEF2F1" opacity="1.000000" stroke="none" 
	d="
M1215.870850,737.014038 
	C1213.885498,736.550232 1211.900024,736.086487 1209.125122,735.438354 
	C1209.125122,736.849365 1208.666382,738.435913 1209.197998,739.550293 
	C1213.278320,748.105530 1208.724731,755.548706 1199.047974,755.952209 
	C1196.884888,756.042419 1194.727905,756.275879 1192.568115,756.443359 
	C1192.502319,757.061646 1192.436523,757.679932 1192.370728,758.298218 
	C1194.239990,758.819275 1196.082031,759.499512 1197.984741,759.826050 
	C1201.253418,760.386963 1204.852539,760.070557 1207.759155,761.365356 
	C1210.132446,762.422546 1212.808228,765.067139 1213.289551,767.427856 
	C1213.717896,769.529236 1211.956421,773.085327 1210.050659,774.467834 
	C1203.974243,778.875549 1196.972412,779.240906 1190.143677,776.278442 
	C1184.618530,773.881348 1184.744507,769.314453 1190.111694,764.606079 
	C1185.980469,759.848999 1186.133301,758.494751 1191.338013,753.740112 
	C1186.695190,748.857727 1185.939087,745.105225 1188.690308,740.600769 
	C1191.777832,735.546082 1197.542480,733.984741 1205.342529,736.253418 
	C1207.828857,733.658752 1209.697632,729.005371 1214.607178,731.403564 
	C1215.397827,731.789856 1214.919556,734.773987 1215.427734,736.801270 
	C1215.827759,737.045349 1215.870850,737.013977 1215.870850,737.014038 
M1192.258789,768.024597 
	C1191.275391,772.586548 1194.273926,773.944031 1197.784180,774.486328 
	C1201.624756,775.079529 1205.534546,774.983032 1207.878906,771.172363 
	C1208.351196,770.404297 1207.888184,768.491028 1207.189819,767.679260 
	C1205.079590,765.226685 1195.228638,765.152405 1192.258789,768.024597 
M1201.558472,738.935303 
	C1199.510010,739.292114 1195.948975,739.203613 1195.688965,740.086853 
	C1194.814453,743.058105 1194.653198,746.455017 1195.183350,749.522400 
	C1195.408813,750.827148 1198.096558,752.654236 1199.531128,752.541260 
	C1201.031982,752.423157 1203.494019,750.312744 1203.556885,748.979797 
	C1203.704712,745.846924 1202.672485,742.658386 1201.558472,738.935303 
z"/>
<path fill="#FEF6F5" opacity="1.000000" stroke="none" 
	d="
M934.693359,726.512817 
	C938.737976,725.573608 942.779358,725.007446 946.820801,724.441345 
	C947.122681,725.081055 947.424561,725.720764 947.726440,726.360474 
	C945.876831,727.455688 943.811707,728.308228 942.234070,729.709595 
	C940.403442,731.335510 938.880493,733.357361 937.444702,735.365051 
	C935.903992,737.519348 934.619812,739.856934 933.089233,742.332031 
	C938.674622,749.000732 944.250854,755.658447 950.086487,762.625916 
	C944.728088,763.782898 940.294922,763.513000 937.144836,758.359558 
	C935.069824,754.964844 932.626038,751.781128 930.173401,748.638733 
	C929.169067,747.351990 927.706055,746.423157 925.549438,744.546387 
	C925.549438,750.128967 925.549438,754.358398 925.549438,758.784119 
	C926.621704,759.578491 928.018921,760.613586 929.416138,761.648621 
	C929.160522,762.056641 928.904968,762.464600 928.649353,762.872559 
	C924.059021,762.872559 919.468628,762.872559 914.940247,762.872559 
	C914.776123,762.347717 914.521851,761.836548 914.608887,761.769714 
	C919.388794,758.098694 918.173828,752.857971 918.235046,747.969360 
	C918.280884,744.309326 918.385132,740.641174 918.203735,736.989563 
	C918.029480,733.481079 920.074341,729.063782 914.732300,727.320007 
	C914.544128,727.258606 914.708374,726.117432 914.708374,725.212646 
	C919.387085,725.212646 923.979126,725.212646 927.979736,725.212646 
	C926.740601,730.361694 925.468079,735.649414 924.195557,740.937195 
	C924.865906,741.277466 925.536316,741.617737 926.206665,741.958008 
	C933.070007,740.892761 932.699341,732.964966 937.050354,729.567505 
	C936.093262,728.480042 935.391724,727.682983 934.693359,726.512817 
z"/>
<path fill="#FEF5F4" opacity="1.000000" stroke="none" 
	d="
M818.251282,762.490295 
	C816.293701,756.825439 814.511719,751.483276 812.388123,745.117065 
	C810.641907,750.346375 809.392822,754.740479 807.665161,758.937683 
	C806.977966,760.607300 805.231262,761.840820 803.966919,763.272827 
	C802.815308,761.921143 801.211243,760.747925 800.594788,759.185242 
	C798.526367,753.941772 796.944153,748.507080 794.898315,743.253662 
	C793.981689,740.900085 792.406250,738.803040 790.871155,736.141052 
	C795.632446,736.141052 799.724182,736.141052 804.476807,736.141052 
	C799.149353,742.669983 804.272461,748.004944 805.842407,753.825928 
	C807.666687,748.003601 809.490967,742.181274 811.312561,736.367371 
	C814.735962,735.127991 816.525452,736.003113 817.422302,739.705383 
	C818.613892,744.624695 820.439575,749.390442 822.459290,754.161072 
	C823.676514,748.167053 829.561462,743.014160 824.606445,736.105835 
	C828.330444,736.105835 831.446655,736.105835 834.527466,736.105835 
	C834.694580,736.510193 834.992249,736.986267 834.909668,737.065369 
	C828.264771,743.430420 827.344788,752.454651 824.224304,760.416992 
	C822.896729,763.804443 821.017273,763.619324 818.251282,762.490295 
z"/>
<path fill="#FEF2F1" opacity="1.000000" stroke="none" 
	d="
M758.974731,728.371399 
	C758.974854,731.440918 758.974854,734.075073 758.974854,736.709290 
	C758.515564,736.947815 758.056274,737.186340 757.596985,737.424866 
	C756.744141,736.265686 755.573792,735.223267 755.096558,733.925964 
	C753.523743,729.650757 750.538940,727.092896 746.096008,727.637634 
	C744.035828,727.890320 741.318237,729.753601 740.580017,731.570007 
	C740.008057,732.977356 741.578491,735.950806 743.045227,737.316833 
	C744.913147,739.056519 747.655457,739.842712 749.985962,741.104370 
	C752.315125,742.365173 754.728455,743.526306 756.877136,745.051880 
	C760.276367,747.465210 761.741577,750.890747 761.006104,755.065186 
	C760.266907,759.261230 757.619568,762.176514 753.629761,762.932007 
	C749.999451,763.619446 746.148193,763.113953 742.395569,763.192810 
	C740.701111,763.228394 739.009460,763.404358 737.316833,763.520020 
	C736.827576,763.553406 736.007996,763.787231 735.904968,763.606689 
	C735.314209,762.570984 734.466248,761.426392 734.496643,760.340820 
	C734.581238,757.315369 735.053955,754.300659 735.373413,751.281738 
	C736.296631,752.148560 737.580688,752.845642 738.081726,753.910950 
	C740.456726,758.960693 744.851501,761.711060 749.609253,760.148743 
	C751.518677,759.521729 753.932007,757.574463 754.279114,755.856873 
	C754.618103,754.179382 753.098145,751.363037 751.535950,750.229492 
	C748.625000,748.117432 745.059570,746.924438 741.823486,745.239624 
	C735.251465,741.817932 732.536499,736.682922 734.309631,731.217285 
	C736.049194,725.854858 742.291443,722.947021 749.216614,724.324158 
	C751.767456,724.831360 754.276184,726.684265 756.858459,724.432922 
	C757.563843,725.600647 758.269226,726.768372 758.974731,728.371399 
z"/>
<path fill="#FEF6F5" opacity="1.000000" stroke="none" 
	d="
M1155.294922,758.283203 
	C1155.454468,752.234863 1155.454468,746.591003 1155.454468,740.935059 
	C1154.478760,740.272583 1153.294556,739.468567 1152.110474,738.664551 
	C1153.370239,738.009644 1154.571655,736.968994 1155.900024,736.768616 
	C1160.817993,736.026855 1165.765625,735.372681 1170.725830,735.051025 
	C1175.033081,734.771729 1178.383667,736.692749 1179.082642,741.186829 
	C1179.742310,745.427429 1179.708862,749.777100 1179.954224,754.080322 
	C1180.098877,756.619446 1178.938965,759.722168 1182.924316,760.554382 
	C1183.121948,760.595581 1183.080811,761.780945 1183.186890,762.769775 
	C1178.835205,762.769775 1174.608521,762.769775 1169.264404,762.769775 
	C1174.907227,757.299988 1173.095337,750.872681 1172.904907,744.792908 
	C1172.754395,739.982422 1169.494873,738.001343 1165.500244,740.070801 
	C1164.195435,740.746704 1163.226196,742.578979 1162.696167,744.090271 
	C1162.227417,745.427185 1162.530762,747.055054 1162.584106,748.551086 
	C1162.755249,753.348816 1160.768188,758.655457 1167.558472,762.716309 
	C1161.435913,762.716309 1157.093140,762.716309 1151.654297,762.716309 
	C1153.196411,760.931580 1154.165771,759.809692 1155.294922,758.283203 
z"/>
<path fill="#FEF8F7" opacity="1.000000" stroke="none" 
	d="
M881.496216,735.242676 
	C889.252197,734.951538 891.908813,737.144592 892.714600,744.352478 
	C892.990723,746.822754 892.754517,749.346191 892.926147,751.833374 
	C893.150024,755.078491 891.341797,759.065552 896.003784,760.866638 
	C896.180420,760.934875 895.947571,762.062988 895.879639,763.088501 
	C892.282349,763.088501 888.813416,763.109619 885.345093,763.072021 
	C884.579468,763.063721 883.816101,762.847290 882.129333,762.581177 
	C887.995911,757.400024 885.757812,751.135376 885.920166,745.328430 
	C886.011169,742.073547 884.736206,739.161133 880.821106,739.353394 
	C877.241150,739.529236 874.877991,741.309753 875.408447,745.467957 
	C875.575439,746.777161 875.378296,748.129028 875.415833,749.459473 
	C875.542664,753.956970 873.724731,758.966553 880.510620,762.648804 
	C874.405640,762.648804 870.081604,762.648804 865.184998,762.648804 
	C871.258240,756.002014 867.713013,748.193176 868.891602,741.315125 
	C867.267517,740.233643 865.956970,739.360901 864.646423,738.488220 
	C864.815063,738.021118 864.983704,737.554016 865.152344,737.086975 
	C868.815918,738.432678 872.130981,732.851685 876.186707,737.166748 
	C876.652100,737.661926 879.403503,736.008545 881.496216,735.242676 
z"/>
<path fill="#FEF8F7" opacity="1.000000" stroke="none" 
	d="
M949.973816,739.068970 
	C953.018555,737.347900 956.101929,736.060303 960.191772,734.352417 
	C960.191772,739.007141 960.131775,742.584412 960.209717,746.158813 
	C960.278381,749.307495 959.995605,752.600159 960.852356,755.542603 
	C961.338806,757.213074 964.283752,759.710815 965.276550,759.370544 
	C967.365356,758.654785 970.080627,756.521606 970.418030,754.598267 
	C971.181091,750.247498 970.657959,745.671143 970.657959,741.436401 
	C969.206177,740.340881 967.885620,739.344360 965.742676,737.727234 
	C970.303894,736.672363 973.306763,735.977905 976.830994,735.162842 
	C976.830994,743.219666 976.830994,751.093628 976.830994,758.445618 
	C978.671509,759.799866 979.952454,760.742371 981.233337,761.684875 
	C981.043396,762.191467 980.853516,762.698059 980.663574,763.204651 
	C977.233154,762.972839 973.802673,762.740967 970.372253,762.509155 
	C970.386230,761.997742 970.400269,761.486328 970.414246,760.974915 
	C969.130005,761.676208 967.886047,762.467712 966.554626,763.063477 
	C960.192383,765.910400 954.599426,762.897339 953.876160,756.056641 
	C953.475220,752.264709 953.213745,748.385010 953.568909,744.608826 
	C953.860535,741.508240 952.614197,740.218628 949.973816,739.068970 
z"/>
<path fill="#FEF5F4" opacity="1.000000" stroke="none" 
	d="
M777.841064,734.992310 
	C785.002686,736.067017 786.932129,738.125732 787.172180,744.667114 
	C787.263550,747.157898 787.193237,749.654785 787.194702,752.148865 
	C787.196106,754.472473 787.194946,756.796082 787.194946,758.715210 
	C788.655090,759.853638 789.900085,760.824280 791.145020,761.794922 
	C790.885986,762.393616 790.626953,762.992371 790.367920,763.591064 
	C787.212219,762.964722 784.071350,762.234924 780.891296,761.778137 
	C779.993652,761.649231 779.000488,762.427612 778.017822,762.601929 
	C775.452393,763.057190 772.598511,764.260864 770.370361,763.554626 
	C768.263611,762.886963 765.645203,760.328125 765.370178,758.312134 
	C765.056763,756.014648 766.403381,752.388489 768.247986,751.136963 
	C771.689087,748.802063 776.011841,747.766663 780.940735,745.802795 
	C780.451904,744.097168 780.128357,741.503235 778.910217,739.436707 
	C778.420715,738.606262 775.895203,738.578979 774.436157,738.875061 
	C773.638672,739.036926 773.105652,740.620239 772.503113,741.593323 
	C771.788147,742.748108 771.377808,744.393555 770.356689,744.954102 
	C769.637085,745.348999 767.375244,744.552185 767.118591,743.823608 
	C766.637085,742.456848 766.555115,739.769287 767.280640,739.360840 
	C770.470520,737.565430 774.008240,736.387878 777.841064,734.992310 
M775.521790,759.307861 
	C781.053040,757.961365 781.497742,757.129211 779.678894,749.444763 
	C776.888489,751.400208 774.369507,752.904907 772.311584,754.888123 
	C772.002380,755.186218 773.849426,757.721741 775.521790,759.307861 
z"/>
<path fill="#FEF4F3" opacity="1.000000" stroke="none" 
	d="
M1059.033691,760.496460 
	C1057.781372,765.737976 1052.868286,763.518616 1051.650146,762.756287 
	C1048.604492,760.850037 1046.878052,763.279297 1044.621582,763.315918 
	C1041.657593,763.364014 1038.145752,763.313904 1035.891235,761.792358 
	C1034.348267,760.751099 1033.520142,756.758545 1034.239014,754.755432 
	C1035.064453,752.456055 1037.683716,750.396484 1040.014404,749.150330 
	C1042.570435,747.783508 1045.686279,747.463318 1049.158081,746.525024 
	C1049.064819,744.905334 1049.465698,742.733887 1048.684082,741.143433 
	C1048.044067,739.840759 1045.996216,738.532104 1044.571411,738.531006 
	C1043.407593,738.530151 1042.141113,740.368469 1041.107666,741.554749 
	C1040.147583,742.656860 1039.625732,744.221680 1038.519287,745.074524 
	C1038.089111,745.406128 1035.885254,744.530518 1035.714844,743.882629 
	C1035.336304,742.442749 1035.252563,740.552612 1035.904663,739.287109 
	C1037.585815,736.024658 1044.240479,734.112549 1049.001587,735.194641 
	C1053.558228,736.230225 1055.712646,739.338013 1055.884888,743.797485 
	C1056.051758,748.119812 1055.711914,752.470398 1056.056519,756.771545 
	C1056.151367,757.955872 1057.898438,759.007874 1059.033691,760.496460 
M1040.914673,757.384888 
	C1043.065186,757.733887 1046.241455,759.107544 1047.140869,758.207092 
	C1048.743652,756.602234 1048.969727,753.622498 1049.986450,750.573608 
	C1044.826782,751.050232 1041.025635,751.323425 1040.914673,757.384888 
z"/>
<path fill="#FEF4F3" opacity="1.000000" stroke="none" 
	d="
M1128.835205,736.623779 
	C1131.268921,735.947571 1133.345947,735.164856 1135.458374,735.053650 
	C1142.078003,734.705078 1145.458374,737.757935 1145.861206,744.309509 
	C1146.034546,747.130066 1145.839478,749.971252 1145.922729,752.799866 
	C1146.009644,755.750366 1144.528320,759.353027 1148.987671,760.678711 
	C1149.194458,760.740173 1149.076904,761.891785 1149.169189,763.669556 
	C1145.628174,762.969604 1142.468018,762.177734 1139.259033,761.802246 
	C1138.150269,761.672546 1136.904053,762.538696 1135.748779,763.018066 
	C1130.668579,765.125854 1125.676392,763.783936 1124.081909,759.857056 
	C1122.346558,755.583130 1124.402222,751.309570 1129.636475,749.169373 
	C1132.511963,747.993652 1135.642822,747.442383 1139.235474,746.450256 
	C1138.994873,744.569641 1139.163818,742.293457 1138.306641,740.510742 
	C1137.773804,739.402527 1135.695068,738.531616 1134.294678,738.508972 
	C1133.203613,738.491272 1131.881226,739.773865 1131.036011,740.790039 
	C1129.943481,742.103577 1129.223511,743.727051 1128.343140,745.217041 
	C1127.284302,744.583313 1125.263428,743.802979 1125.333740,743.341370 
	C1125.631226,741.388672 1126.505859,739.511963 1127.280762,737.653992 
	C1127.439087,737.274719 1128.077637,737.095764 1128.835205,736.623779 
M1132.138550,752.736938 
	C1131.938599,754.636475 1131.738647,756.535950 1131.538696,758.435486 
	C1133.405884,758.469421 1136.271729,759.261047 1136.937622,758.383423 
	C1138.436890,756.407471 1138.846436,753.604675 1139.699463,751.138367 
	C1139.226074,750.866882 1138.752686,750.595398 1138.279297,750.323914 
	C1136.452881,750.948669 1134.626343,751.573425 1132.138550,752.736938 
z"/>
<path fill="#FEF3F2" opacity="1.000000" stroke="none" 
	d="
M858.837402,753.927368 
	C859.793213,757.167358 860.752502,759.923523 862.018250,763.560242 
	C858.589050,762.978088 855.510437,762.323486 852.397461,761.997986 
	C851.295959,761.882812 850.060181,762.451111 848.972046,762.911316 
	C843.612549,765.177612 838.607178,763.868530 836.972961,759.704041 
	C835.230347,755.263367 837.472168,751.117188 843.120422,748.957397 
	C845.863403,747.908569 848.810486,747.393494 852.058472,746.532471 
	C851.966736,744.855042 852.426575,742.744812 851.618225,741.392639 
	C850.783203,739.995789 848.778137,738.751038 847.163269,738.578674 
	C846.234131,738.479553 845.000305,740.586731 844.021851,741.796509 
	C843.176331,742.841797 842.708435,744.356140 841.664612,745.014282 
	C841.066101,745.391663 838.956360,744.712646 838.746033,744.094543 
	C838.265137,742.680603 837.892212,740.575134 838.609070,739.522949 
	C841.582703,735.158325 846.297363,734.640137 851.059509,735.119019 
	C855.100891,735.525330 857.945251,737.830872 858.412842,742.018677 
	C858.834595,745.795837 858.719360,749.632874 858.837402,753.927368 
M845.175476,758.950989 
	C851.921082,759.368225 852.974487,757.983337 851.408508,750.756775 
	C844.410278,751.476013 842.687195,753.421082 845.175476,758.950989 
z"/>
<path fill="#FEF3F2" opacity="1.000000" stroke="none" 
	d="
M1250.763306,763.913757 
	C1246.109131,764.219666 1242.628906,763.133667 1241.676392,758.425415 
	C1240.703613,753.616089 1243.554932,750.838928 1247.502563,749.200562 
	C1250.371582,748.009766 1253.507324,747.461731 1257.043701,746.483459 
	C1256.931030,744.819031 1257.314575,742.632812 1256.509399,741.051758 
	C1255.855103,739.766724 1253.765869,738.524658 1252.330933,738.544678 
	C1251.204590,738.560364 1250.006836,740.453979 1249.024048,741.662292 
	C1248.176147,742.704895 1247.829956,744.438171 1246.802246,744.958984 
	C1246.036499,745.346985 1243.764771,744.538940 1243.528931,743.817322 
	C1243.074097,742.426147 1243.119263,740.476929 1243.787842,739.190979 
	C1245.442627,736.008240 1252.265137,734.118774 1256.927856,735.199463 
	C1261.250732,736.201355 1263.395386,739.149414 1263.700195,743.369751 
	C1263.951050,746.845520 1263.756714,750.351257 1263.852173,753.841187 
	C1263.921021,756.360413 1262.511597,759.592773 1266.760986,760.348877 
	C1266.982422,760.388367 1266.955933,761.819580 1267.043701,762.592224 
	C1261.764282,764.754028 1256.135986,760.053772 1250.763306,763.913757 
M1249.023560,757.934875 
	C1251.270874,757.973145 1254.412964,758.926453 1255.542725,757.821716 
	C1257.008423,756.388489 1256.872070,753.316833 1257.572388,750.321045 
	C1252.584717,751.359802 1248.132568,751.278809 1249.023560,757.934875 
z"/>
<path fill="#FEF5F4" opacity="1.000000" stroke="none" 
	d="
M1106.904541,725.233826 
	C1112.048706,725.042542 1116.812378,725.042542 1121.499146,725.042542 
	C1121.618286,725.872253 1121.807129,726.419678 1121.691772,726.493958 
	C1116.170898,730.046692 1118.060303,735.627380 1117.798950,740.610352 
	C1117.529053,745.753235 1117.743408,750.975281 1116.900879,756.021545 
	C1115.708862,763.161011 1106.939575,766.741211 1102.029663,762.273499 
	C1100.859741,761.208740 1100.547363,758.834595 1100.527954,757.055237 
	C1100.520386,756.356323 1102.827515,754.819153 1103.333862,755.085205 
	C1104.683594,755.794495 1105.687622,757.226929 1106.700806,758.475952 
	C1107.051025,758.907776 1107.023560,759.646057 1107.168457,760.244324 
	C1107.662354,760.421692 1108.156128,760.599060 1108.650024,760.776428 
	C1109.380493,759.010254 1110.698120,757.258606 1110.742310,755.475464 
	C1110.960449,746.669495 1110.841431,737.855286 1109.893921,729.653320 
	C1108.770630,728.243896 1107.647339,726.834534 1106.904541,725.233826 
z"/>
<path fill="#FEF4F3" opacity="1.000000" stroke="none" 
	d="
M1072.892944,744.733276 
	C1072.764893,747.979248 1072.671997,750.801880 1072.733032,753.621094 
	C1072.791260,756.315247 1071.536255,759.636963 1075.757202,760.617188 
	C1075.944092,760.660645 1075.868286,761.834595 1075.937378,762.796265 
	C1071.586914,762.796265 1067.362061,762.796265 1062.085449,762.796265 
	C1068.390869,756.148315 1064.911255,748.431091 1066.111938,740.961365 
	C1065.110840,740.674194 1064.163574,740.585632 1063.440552,740.136292 
	C1062.875610,739.785278 1062.228882,738.951721 1062.282227,738.396179 
	C1062.333618,737.860535 1063.162842,737.123474 1063.776245,736.966736 
	C1066.161133,736.357239 1068.595825,735.943420 1071.441772,735.370239 
	C1071.928833,736.331482 1072.546143,737.549805 1073.157471,738.756165 
	C1074.839478,737.679199 1076.415405,735.935486 1078.167114,735.736389 
	C1080.310425,735.492676 1082.703491,736.315247 1084.739380,737.230896 
	C1085.136353,737.409424 1084.590332,741.381958 1084.140747,741.452759 
	C1082.142456,741.767212 1080.020874,741.299011 1077.943848,741.113831 
	C1077.736694,740.520447 1077.529541,739.927002 1077.322388,739.333557 
	C1075.880005,740.991821 1074.437744,742.650146 1072.892944,744.733276 
z"/>
<path fill="#FEF5F4" opacity="1.000000" stroke="none" 
	d="
M1215.808105,737.063477 
	C1218.199097,736.726196 1220.794922,736.817505 1222.977661,735.912720 
	C1226.404541,734.492126 1227.146484,735.982910 1227.085083,739.118958 
	C1228.952759,737.884705 1230.504272,736.094543 1232.228027,735.909363 
	C1234.500122,735.665283 1236.971558,736.512512 1239.182983,737.350525 
	C1239.491089,737.467285 1238.922485,741.487122 1238.560913,741.520020 
	C1236.464111,741.711365 1234.307739,741.249634 1231.634033,740.281494 
	C1224.438843,746.721375 1225.912720,754.531677 1230.117920,762.851807 
	C1225.748657,762.851807 1221.502075,762.851807 1216.288696,762.851807 
	C1221.786621,757.592896 1219.861694,751.403809 1220.126343,745.605957 
	C1220.237183,743.176880 1221.251953,740.116394 1217.089844,739.725586 
	C1216.854248,739.703491 1216.756348,738.214050 1216.232666,737.210754 
	C1215.870850,737.013977 1215.827759,737.045349 1215.808105,737.063477 
z"/>
<path fill="#FFFEFE" opacity="1.000000" stroke="none" 
	d="
M1092.626465,1078.356201 
	C1092.381226,1078.097778 1092.291138,1077.697998 1092.201172,1077.298096 
	C1092.447754,1077.317139 1092.694336,1077.336182 1093.009399,1077.636230 
	C1093.077881,1077.917236 1092.781616,1078.214844 1092.626465,1078.356201 
z"/>
<path fill="#FFFEFE" opacity="1.000000" stroke="none" 
	d="
M1444.084595,662.042969 
	C1444.089966,661.843872 1444.059448,661.628052 1444.028809,661.412170 
	C1444.150391,661.563354 1444.271973,661.714600 1444.187988,661.924255 
	C1443.982666,661.982666 1444.048706,662.026184 1444.084595,662.042969 
z"/>
<path fill="#EE2815" opacity="1.000000" stroke="none" 
	d="
M642.822998,907.026672 
	C637.060303,903.849365 634.384277,899.491699 633.374512,893.045288 
	C632.374146,886.659058 629.233521,880.608032 626.622192,873.257263 
	C628.742310,875.007507 630.944397,876.063477 631.951294,877.808960 
	C634.344360,881.957397 636.183289,886.426758 638.224915,890.776428 
	C640.964294,896.612732 643.683655,902.458374 646.570251,908.639648 
	C645.381348,908.129944 644.260010,907.649170 642.822998,907.026672 
z"/>
<path fill="#EE2815" opacity="1.000000" stroke="none" 
	d="
M615.770508,884.107605 
	C614.777893,882.955383 613.251343,881.937256 613.390442,881.262146 
	C613.798096,879.283203 614.868469,877.440796 615.679260,875.544861 
	C616.934143,876.409363 618.887451,877.014160 619.322205,878.183472 
	C621.144470,883.085266 622.511902,888.156189 623.407227,893.511719 
	C620.937378,890.473938 618.467529,887.436218 615.770508,884.107605 
z"/>
<path fill="#EE2310" opacity="1.000000" stroke="none" 
	d="
M1192.434814,767.682007 
	C1195.228638,765.152405 1205.079590,765.226685 1207.189819,767.679260 
	C1207.888184,768.491028 1208.351196,770.404297 1207.878906,771.172363 
	C1205.534546,774.983032 1201.624756,775.079529 1197.784180,774.486328 
	C1194.273926,773.944031 1191.275391,772.586548 1192.434814,767.682007 
z"/>
<path fill="#EE2310" opacity="1.000000" stroke="none" 
	d="
M1201.838135,739.213867 
	C1202.672485,742.658386 1203.704712,745.846924 1203.556885,748.979797 
	C1203.494019,750.312744 1201.031982,752.423157 1199.531128,752.541260 
	C1198.096558,752.654236 1195.408813,750.827148 1195.183350,749.522400 
	C1194.653198,746.455017 1194.814453,743.058105 1195.688965,740.086853 
	C1195.948975,739.203613 1199.510010,739.292114 1201.838135,739.213867 
z"/>
<path fill="#EE2815" opacity="1.000000" stroke="none" 
	d="
M775.110413,759.265015 
	C773.849426,757.721741 772.002380,755.186218 772.311584,754.888123 
	C774.369507,752.904907 776.888489,751.400208 779.678894,749.444763 
	C781.497742,757.129211 781.053040,757.961365 775.110413,759.265015 
z"/>
<path fill="#EE2310" opacity="1.000000" stroke="none" 
	d="
M1040.818237,756.968018 
	C1041.025635,751.323425 1044.826782,751.050232 1049.986450,750.573608 
	C1048.969727,753.622498 1048.743652,756.602234 1047.140869,758.207092 
	C1046.241455,759.107544 1043.065186,757.733887 1040.818237,756.968018 
z"/>
<path fill="#EE2310" opacity="1.000000" stroke="none" 
	d="
M1132.469238,752.467529 
	C1134.626343,751.573425 1136.452881,750.948669 1138.279297,750.323914 
	C1138.752686,750.595398 1139.226074,750.866882 1139.699463,751.138367 
	C1138.846436,753.604675 1138.436890,756.407471 1136.937622,758.383423 
	C1136.271729,759.261047 1133.405884,758.469421 1131.538696,758.435486 
	C1131.738647,756.535950 1131.938599,754.636475 1132.469238,752.467529 
z"/>
<path fill="#EE2310" opacity="1.000000" stroke="none" 
	d="
M844.828491,758.763550 
	C842.687195,753.421082 844.410278,751.476013 851.408508,750.756775 
	C852.974487,757.983337 851.921082,759.368225 844.828491,758.763550 
z"/>
<path fill="#EE2310" opacity="1.000000" stroke="none" 
	d="
M1248.863037,757.585266 
	C1248.132568,751.278809 1252.584717,751.359802 1257.572388,750.321045 
	C1256.872070,753.316833 1257.008423,756.388489 1255.542725,757.821716 
	C1254.412964,758.926453 1251.270874,757.973145 1248.863037,757.585266 
z"/>
</svg>